# xmcd CD database file
#
# Track frame offsets:
#	150
#	34601
#	51029
#	72289
#	88512
#	146154
#	167971
#	170060
#	187871
#	210443
#
# Disc length: 3032 seconds
#
# Revision: 0
# Processed by: cddbd v1.5.2PL0 Copyright (c) Steve Scherf et al.
# Submitted via: CDex 1.40Beta8
#
DISCID=880bd60a
DTITLE=Billy Price Band - Have Mercy
DYEAR=2008
DGENRE=Blues
TTITLE0=Power of Love/I Didn't Know the Meaning of Pain
TTITLE1=Gonna Forget About You
TTITLE2=Have a Little Mercy
TTITLE3=Can I Change My Mind
TTITLE4=Medley: Something 'Bout 'Cha/That's How It Is/Blind Man
TTITLE5=Let Yourself Go
TTITLE6=Band Introduction
TTITLE7=Room Next to the Room
TTITLE8=Bump and Grind
TTITLE9=Nothing Takes the Place of You
EXTD=YEAR: 2008 ID3G: 0
EXTT0=
EXTT1=
EXTT2=
EXTT3=
EXTT4=
EXTT5=
EXTT6=
EXTT7=
EXTT8=
EXTT9=
PLAYORDER=
